<mxfile host="app.diagrams.net" agent="Mozilla/5.0 (Windows NT 10.0; Win64; x64) AppleWebKit/537.36 (KHTML, like Gecko) Chrome/130.0.0.0 Safari/537.36" version="24.7.17">
  <diagram id="VoZWRflpAOP-JWyZz2AC" name="Страница — 1">
    <mxGraphModel dx="2868" dy="1560" grid="1" gridSize="10" guides="1" tooltips="1" connect="1" arrows="1" fold="1" page="1" pageScale="1" pageWidth="850" pageHeight="1100" math="0" shadow="0">
      <root>
        <mxCell id="0" />
        <mxCell id="1" parent="0" />
        <mxCell id="hAwZ3yCSyLky0_SLvf3p-3" style="edgeStyle=orthogonalEdgeStyle;rounded=0;orthogonalLoop=1;jettySize=auto;html=1;entryX=0;entryY=0.5;entryDx=0;entryDy=0;" edge="1" parent="1" source="hAwZ3yCSyLky0_SLvf3p-1" target="hAwZ3yCSyLky0_SLvf3p-2">
          <mxGeometry relative="1" as="geometry">
            <Array as="points">
              <mxPoint x="240" y="270" />
              <mxPoint x="240" y="170" />
            </Array>
          </mxGeometry>
        </mxCell>
        <mxCell id="hAwZ3yCSyLky0_SLvf3p-5" style="edgeStyle=orthogonalEdgeStyle;rounded=0;orthogonalLoop=1;jettySize=auto;html=1;entryX=0;entryY=0.5;entryDx=0;entryDy=0;" edge="1" parent="1" source="hAwZ3yCSyLky0_SLvf3p-1" target="hAwZ3yCSyLky0_SLvf3p-4">
          <mxGeometry relative="1" as="geometry" />
        </mxCell>
        <mxCell id="hAwZ3yCSyLky0_SLvf3p-7" style="edgeStyle=orthogonalEdgeStyle;rounded=0;orthogonalLoop=1;jettySize=auto;html=1;entryX=0;entryY=0.5;entryDx=0;entryDy=0;" edge="1" parent="1" source="hAwZ3yCSyLky0_SLvf3p-1" target="hAwZ3yCSyLky0_SLvf3p-6">
          <mxGeometry relative="1" as="geometry" />
        </mxCell>
        <mxCell id="hAwZ3yCSyLky0_SLvf3p-40" style="edgeStyle=orthogonalEdgeStyle;rounded=0;orthogonalLoop=1;jettySize=auto;html=1;" edge="1" parent="1" source="hAwZ3yCSyLky0_SLvf3p-1" target="hAwZ3yCSyLky0_SLvf3p-39">
          <mxGeometry relative="1" as="geometry">
            <Array as="points">
              <mxPoint x="240" y="270" />
              <mxPoint x="240" y="512" />
            </Array>
          </mxGeometry>
        </mxCell>
        <mxCell id="hAwZ3yCSyLky0_SLvf3p-1" value="Пользователь" style="shape=umlActor;verticalLabelPosition=bottom;verticalAlign=top;html=1;" vertex="1" parent="1">
          <mxGeometry x="150" y="240" width="30" height="60" as="geometry" />
        </mxCell>
        <mxCell id="hAwZ3yCSyLky0_SLvf3p-2" value="Создание ТЭО" style="ellipse;whiteSpace=wrap;html=1;" vertex="1" parent="1">
          <mxGeometry x="290" y="140" width="110" height="60" as="geometry" />
        </mxCell>
        <mxCell id="hAwZ3yCSyLky0_SLvf3p-4" value="Редактирование ТЭО" style="ellipse;whiteSpace=wrap;html=1;" vertex="1" parent="1">
          <mxGeometry x="290" y="232.5" width="120" height="75" as="geometry" />
        </mxCell>
        <mxCell id="hAwZ3yCSyLky0_SLvf3p-6" value="Расчет ТЭО" style="ellipse;whiteSpace=wrap;html=1;" vertex="1" parent="1">
          <mxGeometry x="300" y="360" width="100" height="60" as="geometry" />
        </mxCell>
        <mxCell id="hAwZ3yCSyLky0_SLvf3p-8" value="Редактирование организационных параметров" style="ellipse;whiteSpace=wrap;html=1;" vertex="1" parent="1">
          <mxGeometry x="490" y="10" width="120" height="80" as="geometry" />
        </mxCell>
        <mxCell id="hAwZ3yCSyLky0_SLvf3p-14" style="edgeStyle=orthogonalEdgeStyle;rounded=0;orthogonalLoop=1;jettySize=auto;html=1;endArrow=open;endFill=0;dashed=1;dashPattern=8 8;" edge="1" parent="1" source="hAwZ3yCSyLky0_SLvf3p-2" target="hAwZ3yCSyLky0_SLvf3p-8">
          <mxGeometry relative="1" as="geometry">
            <mxPoint x="560" y="90" as="sourcePoint" />
            <mxPoint x="400" y="175" as="targetPoint" />
            <Array as="points">
              <mxPoint x="500" y="160" />
            </Array>
          </mxGeometry>
        </mxCell>
        <mxCell id="hAwZ3yCSyLky0_SLvf3p-15" value="&amp;lt;&amp;lt;include&amp;gt;&amp;gt;" style="edgeLabel;html=1;align=center;verticalAlign=middle;resizable=0;points=[];" vertex="1" connectable="0" parent="hAwZ3yCSyLky0_SLvf3p-14">
          <mxGeometry x="-0.0269" y="2" relative="1" as="geometry">
            <mxPoint x="-9" y="2" as="offset" />
          </mxGeometry>
        </mxCell>
        <mxCell id="hAwZ3yCSyLky0_SLvf3p-18" style="edgeStyle=orthogonalEdgeStyle;rounded=0;orthogonalLoop=1;jettySize=auto;html=1;endArrow=none;endFill=0;dashed=1;dashPattern=8 8;startArrow=blockThin;startFill=0;" edge="1" parent="1" source="hAwZ3yCSyLky0_SLvf3p-4" target="hAwZ3yCSyLky0_SLvf3p-8">
          <mxGeometry relative="1" as="geometry">
            <mxPoint x="400" y="175" as="sourcePoint" />
            <mxPoint x="560" y="90" as="targetPoint" />
            <Array as="points">
              <mxPoint x="520" y="240" />
            </Array>
          </mxGeometry>
        </mxCell>
        <mxCell id="hAwZ3yCSyLky0_SLvf3p-19" value="&amp;lt;&amp;lt;extend&amp;gt;&amp;gt;" style="edgeLabel;html=1;align=center;verticalAlign=middle;resizable=0;points=[];" vertex="1" connectable="0" parent="hAwZ3yCSyLky0_SLvf3p-18">
          <mxGeometry x="-0.0269" y="2" relative="1" as="geometry">
            <mxPoint x="2" y="-18" as="offset" />
          </mxGeometry>
        </mxCell>
        <mxCell id="hAwZ3yCSyLky0_SLvf3p-20" value="Редактирование адресной программы" style="ellipse;whiteSpace=wrap;html=1;" vertex="1" parent="1">
          <mxGeometry x="620" y="10" width="120" height="80" as="geometry" />
        </mxCell>
        <mxCell id="hAwZ3yCSyLky0_SLvf3p-23" style="edgeStyle=orthogonalEdgeStyle;rounded=0;orthogonalLoop=1;jettySize=auto;html=1;endArrow=open;endFill=0;dashed=1;dashPattern=8 8;" edge="1" parent="1" source="hAwZ3yCSyLky0_SLvf3p-2" target="hAwZ3yCSyLky0_SLvf3p-20">
          <mxGeometry relative="1" as="geometry">
            <mxPoint x="410" y="185" as="sourcePoint" />
            <mxPoint x="570" y="120" as="targetPoint" />
            <Array as="points">
              <mxPoint x="660" y="170" />
            </Array>
          </mxGeometry>
        </mxCell>
        <mxCell id="hAwZ3yCSyLky0_SLvf3p-24" value="&amp;lt;&amp;lt;include&amp;gt;&amp;gt;" style="edgeLabel;html=1;align=center;verticalAlign=middle;resizable=0;points=[];" vertex="1" connectable="0" parent="hAwZ3yCSyLky0_SLvf3p-23">
          <mxGeometry x="-0.0269" y="2" relative="1" as="geometry">
            <mxPoint x="58" y="2" as="offset" />
          </mxGeometry>
        </mxCell>
        <mxCell id="hAwZ3yCSyLky0_SLvf3p-25" style="edgeStyle=orthogonalEdgeStyle;rounded=0;orthogonalLoop=1;jettySize=auto;html=1;endArrow=none;endFill=0;dashed=1;dashPattern=8 8;startArrow=blockThin;startFill=0;" edge="1" parent="1" source="hAwZ3yCSyLky0_SLvf3p-4" target="hAwZ3yCSyLky0_SLvf3p-20">
          <mxGeometry relative="1" as="geometry">
            <mxPoint x="390" y="275" as="sourcePoint" />
            <mxPoint x="700" y="210" as="targetPoint" />
            <Array as="points">
              <mxPoint x="680" y="250" />
            </Array>
          </mxGeometry>
        </mxCell>
        <mxCell id="hAwZ3yCSyLky0_SLvf3p-26" value="&amp;lt;&amp;lt;extend&amp;gt;&amp;gt;" style="edgeLabel;html=1;align=center;verticalAlign=middle;resizable=0;points=[];" vertex="1" connectable="0" parent="hAwZ3yCSyLky0_SLvf3p-25">
          <mxGeometry x="-0.0269" y="2" relative="1" as="geometry">
            <mxPoint x="5" y="2" as="offset" />
          </mxGeometry>
        </mxCell>
        <mxCell id="hAwZ3yCSyLky0_SLvf3p-27" value="Редактирование параметров модели" style="ellipse;whiteSpace=wrap;html=1;" vertex="1" parent="1">
          <mxGeometry x="750" y="10" width="120" height="80" as="geometry" />
        </mxCell>
        <mxCell id="hAwZ3yCSyLky0_SLvf3p-28" style="edgeStyle=orthogonalEdgeStyle;rounded=0;orthogonalLoop=1;jettySize=auto;html=1;endArrow=none;endFill=0;dashed=1;dashPattern=8 8;startArrow=blockThin;startFill=0;" edge="1" parent="1" source="hAwZ3yCSyLky0_SLvf3p-4" target="hAwZ3yCSyLky0_SLvf3p-27">
          <mxGeometry relative="1" as="geometry">
            <mxPoint x="400" y="280" as="sourcePoint" />
            <mxPoint x="690" y="98" as="targetPoint" />
            <Array as="points">
              <mxPoint x="810" y="260" />
            </Array>
          </mxGeometry>
        </mxCell>
        <mxCell id="hAwZ3yCSyLky0_SLvf3p-29" value="&amp;lt;&amp;lt;extend&amp;gt;&amp;gt;" style="edgeLabel;html=1;align=center;verticalAlign=middle;resizable=0;points=[];" vertex="1" connectable="0" parent="hAwZ3yCSyLky0_SLvf3p-28">
          <mxGeometry x="-0.0269" y="2" relative="1" as="geometry">
            <mxPoint x="84" y="2" as="offset" />
          </mxGeometry>
        </mxCell>
        <mxCell id="hAwZ3yCSyLky0_SLvf3p-30" value="Редактирование значений модели" style="ellipse;whiteSpace=wrap;html=1;" vertex="1" parent="1">
          <mxGeometry x="1010" y="10" width="120" height="80" as="geometry" />
        </mxCell>
        <mxCell id="hAwZ3yCSyLky0_SLvf3p-31" style="edgeStyle=orthogonalEdgeStyle;rounded=0;orthogonalLoop=1;jettySize=auto;html=1;endArrow=none;endFill=0;dashed=1;dashPattern=8 8;startArrow=blockThin;startFill=0;" edge="1" parent="1" source="hAwZ3yCSyLky0_SLvf3p-4" target="hAwZ3yCSyLky0_SLvf3p-30">
          <mxGeometry relative="1" as="geometry">
            <mxPoint x="396" y="290" as="sourcePoint" />
            <mxPoint x="820" y="100" as="targetPoint" />
            <Array as="points">
              <mxPoint x="1070" y="280" />
            </Array>
          </mxGeometry>
        </mxCell>
        <mxCell id="hAwZ3yCSyLky0_SLvf3p-32" value="&amp;lt;&amp;lt;extend&amp;gt;&amp;gt;" style="edgeLabel;html=1;align=center;verticalAlign=middle;resizable=0;points=[];" vertex="1" connectable="0" parent="hAwZ3yCSyLky0_SLvf3p-31">
          <mxGeometry x="-0.0269" y="2" relative="1" as="geometry">
            <mxPoint x="197" y="2" as="offset" />
          </mxGeometry>
        </mxCell>
        <mxCell id="hAwZ3yCSyLky0_SLvf3p-34" style="edgeStyle=orthogonalEdgeStyle;rounded=0;orthogonalLoop=1;jettySize=auto;html=1;endArrow=open;endFill=0;dashed=1;dashPattern=8 8;" edge="1" parent="1" source="hAwZ3yCSyLky0_SLvf3p-4" target="hAwZ3yCSyLky0_SLvf3p-6">
          <mxGeometry relative="1" as="geometry">
            <mxPoint x="450" y="384.5" as="sourcePoint" />
            <mxPoint x="720" y="480" as="targetPoint" />
            <Array as="points">
              <mxPoint x="350" y="350" />
              <mxPoint x="350" y="350" />
            </Array>
          </mxGeometry>
        </mxCell>
        <mxCell id="hAwZ3yCSyLky0_SLvf3p-35" value="&amp;lt;&amp;lt;include&amp;gt;&amp;gt;" style="edgeLabel;html=1;align=center;verticalAlign=middle;resizable=0;points=[];" vertex="1" connectable="0" parent="hAwZ3yCSyLky0_SLvf3p-34">
          <mxGeometry x="-0.0269" y="2" relative="1" as="geometry">
            <mxPoint x="58" y="2" as="offset" />
          </mxGeometry>
        </mxCell>
        <mxCell id="hAwZ3yCSyLky0_SLvf3p-36" value="Расчёт параметров &quot;по методологии&quot;" style="ellipse;whiteSpace=wrap;html=1;" vertex="1" parent="1">
          <mxGeometry x="880" y="10" width="120" height="80" as="geometry" />
        </mxCell>
        <mxCell id="hAwZ3yCSyLky0_SLvf3p-37" style="edgeStyle=orthogonalEdgeStyle;rounded=0;orthogonalLoop=1;jettySize=auto;html=1;endArrow=none;endFill=0;dashed=1;dashPattern=8 8;startArrow=blockThin;startFill=0;" edge="1" parent="1" source="hAwZ3yCSyLky0_SLvf3p-4" target="hAwZ3yCSyLky0_SLvf3p-36">
          <mxGeometry relative="1" as="geometry">
            <mxPoint x="418" y="290" as="sourcePoint" />
            <mxPoint x="1080" y="100" as="targetPoint" />
            <Array as="points">
              <mxPoint x="940" y="270" />
            </Array>
          </mxGeometry>
        </mxCell>
        <mxCell id="hAwZ3yCSyLky0_SLvf3p-38" value="&amp;lt;&amp;lt;extend&amp;gt;&amp;gt;" style="edgeLabel;html=1;align=center;verticalAlign=middle;resizable=0;points=[];" vertex="1" connectable="0" parent="hAwZ3yCSyLky0_SLvf3p-37">
          <mxGeometry x="-0.0269" y="2" relative="1" as="geometry">
            <mxPoint x="135" y="2" as="offset" />
          </mxGeometry>
        </mxCell>
        <mxCell id="hAwZ3yCSyLky0_SLvf3p-39" value="Просмотр ТЭО" style="ellipse;whiteSpace=wrap;html=1;" vertex="1" parent="1">
          <mxGeometry x="290" y="470" width="120" height="75" as="geometry" />
        </mxCell>
        <mxCell id="hAwZ3yCSyLky0_SLvf3p-41" value="Редактирование организационных параметров" style="ellipse;whiteSpace=wrap;html=1;" vertex="1" parent="1">
          <mxGeometry x="490" y="570" width="120" height="80" as="geometry" />
        </mxCell>
        <mxCell id="hAwZ3yCSyLky0_SLvf3p-42" value="Редактирование адресной программы" style="ellipse;whiteSpace=wrap;html=1;" vertex="1" parent="1">
          <mxGeometry x="620" y="570" width="120" height="80" as="geometry" />
        </mxCell>
        <mxCell id="hAwZ3yCSyLky0_SLvf3p-43" value="Редактирование параметров модели" style="ellipse;whiteSpace=wrap;html=1;" vertex="1" parent="1">
          <mxGeometry x="750" y="570" width="120" height="80" as="geometry" />
        </mxCell>
        <mxCell id="hAwZ3yCSyLky0_SLvf3p-44" value="Редактирование значений модели" style="ellipse;whiteSpace=wrap;html=1;" vertex="1" parent="1">
          <mxGeometry x="880" y="570" width="120" height="80" as="geometry" />
        </mxCell>
        <mxCell id="hAwZ3yCSyLky0_SLvf3p-46" style="edgeStyle=orthogonalEdgeStyle;rounded=0;orthogonalLoop=1;jettySize=auto;html=1;endArrow=none;endFill=0;dashed=1;dashPattern=8 8;startArrow=blockThin;startFill=0;" edge="1" parent="1" source="hAwZ3yCSyLky0_SLvf3p-39" target="hAwZ3yCSyLky0_SLvf3p-41">
          <mxGeometry relative="1" as="geometry">
            <mxPoint x="470" y="515" as="sourcePoint" />
            <mxPoint x="604" y="360" as="targetPoint" />
            <Array as="points">
              <mxPoint x="550" y="530" />
            </Array>
          </mxGeometry>
        </mxCell>
        <mxCell id="hAwZ3yCSyLky0_SLvf3p-47" value="&amp;lt;&amp;lt;extend&amp;gt;&amp;gt;" style="edgeLabel;html=1;align=center;verticalAlign=middle;resizable=0;points=[];" vertex="1" connectable="0" parent="hAwZ3yCSyLky0_SLvf3p-46">
          <mxGeometry x="-0.0269" y="2" relative="1" as="geometry">
            <mxPoint x="11" y="2" as="offset" />
          </mxGeometry>
        </mxCell>
        <mxCell id="hAwZ3yCSyLky0_SLvf3p-48" style="edgeStyle=orthogonalEdgeStyle;rounded=0;orthogonalLoop=1;jettySize=auto;html=1;endArrow=none;endFill=0;dashed=1;dashPattern=8 8;startArrow=blockThin;startFill=0;" edge="1" parent="1" source="hAwZ3yCSyLky0_SLvf3p-39" target="hAwZ3yCSyLky0_SLvf3p-42">
          <mxGeometry relative="1" as="geometry">
            <mxPoint x="520" y="510" as="sourcePoint" />
            <mxPoint x="672" y="550" as="targetPoint" />
            <Array as="points">
              <mxPoint x="672" y="520" />
            </Array>
          </mxGeometry>
        </mxCell>
        <mxCell id="hAwZ3yCSyLky0_SLvf3p-49" value="&amp;lt;&amp;lt;extend&amp;gt;&amp;gt;" style="edgeLabel;html=1;align=center;verticalAlign=middle;resizable=0;points=[];" vertex="1" connectable="0" parent="hAwZ3yCSyLky0_SLvf3p-48">
          <mxGeometry x="-0.0269" y="2" relative="1" as="geometry">
            <mxPoint x="49" y="2" as="offset" />
          </mxGeometry>
        </mxCell>
        <mxCell id="hAwZ3yCSyLky0_SLvf3p-50" style="edgeStyle=orthogonalEdgeStyle;rounded=0;orthogonalLoop=1;jettySize=auto;html=1;endArrow=none;endFill=0;dashed=1;dashPattern=8 8;startArrow=blockThin;startFill=0;" edge="1" parent="1" source="hAwZ3yCSyLky0_SLvf3p-39" target="hAwZ3yCSyLky0_SLvf3p-43">
          <mxGeometry relative="1" as="geometry">
            <mxPoint x="500" y="510" as="sourcePoint" />
            <mxPoint x="765" y="560" as="targetPoint" />
            <Array as="points">
              <mxPoint x="810" y="510" />
            </Array>
          </mxGeometry>
        </mxCell>
        <mxCell id="hAwZ3yCSyLky0_SLvf3p-51" value="&amp;lt;&amp;lt;extend&amp;gt;&amp;gt;" style="edgeLabel;html=1;align=center;verticalAlign=middle;resizable=0;points=[];" vertex="1" connectable="0" parent="hAwZ3yCSyLky0_SLvf3p-50">
          <mxGeometry x="-0.0269" y="2" relative="1" as="geometry">
            <mxPoint x="126" y="2" as="offset" />
          </mxGeometry>
        </mxCell>
        <mxCell id="hAwZ3yCSyLky0_SLvf3p-52" style="edgeStyle=orthogonalEdgeStyle;rounded=0;orthogonalLoop=1;jettySize=auto;html=1;endArrow=none;endFill=0;dashed=1;dashPattern=8 8;startArrow=blockThin;startFill=0;" edge="1" parent="1" source="hAwZ3yCSyLky0_SLvf3p-39" target="hAwZ3yCSyLky0_SLvf3p-44">
          <mxGeometry relative="1" as="geometry">
            <mxPoint x="540" y="477.5" as="sourcePoint" />
            <mxPoint x="940" y="537.5" as="targetPoint" />
            <Array as="points">
              <mxPoint x="940" y="500" />
            </Array>
          </mxGeometry>
        </mxCell>
        <mxCell id="hAwZ3yCSyLky0_SLvf3p-53" value="&amp;lt;&amp;lt;extend&amp;gt;&amp;gt;" style="edgeLabel;html=1;align=center;verticalAlign=middle;resizable=0;points=[];" vertex="1" connectable="0" parent="hAwZ3yCSyLky0_SLvf3p-52">
          <mxGeometry x="-0.0269" y="2" relative="1" as="geometry">
            <mxPoint x="188" y="2" as="offset" />
          </mxGeometry>
        </mxCell>
        <mxCell id="hAwZ3yCSyLky0_SLvf3p-56" style="edgeStyle=orthogonalEdgeStyle;rounded=0;orthogonalLoop=1;jettySize=auto;html=1;" edge="1" parent="1" source="hAwZ3yCSyLky0_SLvf3p-54" target="hAwZ3yCSyLky0_SLvf3p-55">
          <mxGeometry relative="1" as="geometry">
            <Array as="points">
              <mxPoint x="250" y="840" />
              <mxPoint x="250" y="752" />
            </Array>
          </mxGeometry>
        </mxCell>
        <mxCell id="hAwZ3yCSyLky0_SLvf3p-58" style="edgeStyle=orthogonalEdgeStyle;rounded=0;orthogonalLoop=1;jettySize=auto;html=1;" edge="1" parent="1" source="hAwZ3yCSyLky0_SLvf3p-54" target="hAwZ3yCSyLky0_SLvf3p-57">
          <mxGeometry relative="1" as="geometry">
            <Array as="points">
              <mxPoint x="250" y="840" />
              <mxPoint x="250" y="920" />
            </Array>
          </mxGeometry>
        </mxCell>
        <mxCell id="hAwZ3yCSyLky0_SLvf3p-54" value="Администратор" style="shape=umlActor;verticalLabelPosition=bottom;verticalAlign=top;html=1;" vertex="1" parent="1">
          <mxGeometry x="150" y="810" width="30" height="60" as="geometry" />
        </mxCell>
        <mxCell id="hAwZ3yCSyLky0_SLvf3p-55" value="Редактирование прав пользователя" style="ellipse;whiteSpace=wrap;html=1;" vertex="1" parent="1">
          <mxGeometry x="287.5" y="710" width="125" height="80" as="geometry" />
        </mxCell>
        <mxCell id="hAwZ3yCSyLky0_SLvf3p-57" value="Изменение значений нормативов" style="ellipse;whiteSpace=wrap;html=1;" vertex="1" parent="1">
          <mxGeometry x="287.5" y="880" width="125" height="80" as="geometry" />
        </mxCell>
      </root>
    </mxGraphModel>
  </diagram>
</mxfile>
